PathFileType	4	(X/Y/Z)	./resultDataOpenSim/trcMotMarkerGrf/sub10/qtm-05-01.trc
DataRate	CameraRate	NumFrames	NumMarkers	Units	OrigDataRate	OrigDataStartFrame	OrigNumFrames
250.000000	250.000000	8	24	m	250.000000	125	496
Frame#	Time	L.Toe.Tip			R.Toe.Tip			L.Ankle.Lat			R.Ankle.Lat			L.Ankle.Med			R.Ankle.Med			L.Heel			R.Heel			L.Knee.Lat			R.Knee.Lat			L.Knee.Med			R.Knee.Med			L.Thigh.Upper			R.Thigh.Upper			L.ASIS			R.ASIS			V.Sacral			L.Acromium			R.Acromium			C7			L.Elbow			R.Elbow			L.Wrist.Lat			R.Wrist.Lat
		X1	Y1	Z1	X2	Y2	Z2	X3	Y3	Z3	X4	Y4	Z4	X5	Y5	Z5	X6	Y6	Z6	X7	Y7	Z7	X8	Y8	Z8	X9	Y9	Z9	X10	Y10	Z10	X11	Y11	Z11	X12	Y12	Z12	X13	Y13	Z13	X14	Y14	Z14	X15	Y15	Z15	X16	Y16	Z16	X17	Y17	Z17	X18	Y18	Z18	X19	Y19	Z19	X20	Y20	Z20	X21	Y21	Z21	X22	Y22	Z22	X23	Y23	Z23	X24	Y24	Z24

125	0.496	-0.3556099	0.067346377	-0.14425449	-0.78441252	0.03878712	0.014833618	-0.48763177	0.094378416	-0.16283869	-0.92564616	0.055904357	0.036752994	-0.47481883	0.11178882	-0.078311288	-0.89869811	0.081370424	-0.04491758	-0.54825867	0.059679476	-0.11474168	-0.97436727	0.033302864	-0.016492099	-0.44878472	0.48447338	-0.16521744	-0.78984091	0.43537727	0.093219984	-0.43658123	0.45634947	-0.046580214	-0.76870432	0.4393	-0.034557943	-0.61504337	0.82551089	-0.21178197	-0.71571273	0.84243519	0.16174623	-0.58030907	0.92761613	-0.13412669	-0.62221099	0.92830652	0.10660859	-0.7950206	0.94629479	-0.05261753	-0.64267576	1.4026527	-0.17325951	-0.68570259	1.4044727	0.14452833	-0.74108463	1.4297474	-0.029773077	-0.77207859	1.0958352	-0.2615476	-0.74986747	1.0503814	0.21232951	-0.68892059	0.86828994	-0.29214305	-0.51954914	0.94803279	0.24116137
126	0.5	-0.33772308	0.06630073	-0.14141303	-0.78431548	0.038840598	0.014862282	-0.47011046	0.091725848	-0.16198131	-0.92539274	0.056093477	0.036651258	-0.4582958	0.11001753	-0.07741058	-0.89847637	0.081391405	-0.045004503	-0.53085899	0.056583764	-0.11498189	-0.97436736	0.033455098	-0.0166269	-0.44140966	0.48309217	-0.16526769	-0.78816033	0.43486193	0.093002234	-0.43024844	0.45520383	-0.046583127	-0.7665491	0.43869331	-0.034688985	-0.60763036	0.82457399	-0.21160852	-0.71146079	0.84145523	0.16145972	-0.57366025	0.92640652	-0.13368598	-0.61724853	0.92702018	0.1068001	-0.78857942	0.94465938	-0.054551354	-0.63680345	1.4011573	-0.17322001	-0.68003999	1.4031382	0.14457662	-0.7354856	1.4284118	-0.029745986	-0.76901516	1.0956003	-0.26211061	-0.74243418	1.0486374	0.21343128	-0.68745371	0.86764453	-0.29382559	-0.5107603	0.94849315	0.24050557
127	0.504	-0.32002623	0.065093599	-0.1384777	-0.78424012	0.038848857	0.014900064	-0.45268902	0.089211132	-0.16110183	-0.92535071	0.056213614	0.036521095	-0.44184867	0.10839354	-0.076531257	-0.89827905	0.081408508	-0.045105905	-0.51359062	0.053853429	-0.11515382	-0.97435891	0.033623724	-0.016813661	-0.43419654	0.48155481	-0.16537444	-0.78636403	0.43432137	0.092801983	-0.42397942	0.45385859	-0.046623482	-0.76434387	0.43803451	-0.034831753	-0.60029679	0.82356224	-0.21143256	-0.70716144	0.84039253	0.16116532	-0.56697732	0.92515076	-0.13320964	-0.6122959	0.92569018	0.10699834	-0.7816668	0.94283604	-0.05690954	-0.6310115	1.3996054	-0.17320162	-0.67435286	1.4017421	0.14463773	-0.73000902	1.4270692	-0.029694772	-0.76596282	1.0953369	-0.26282848	-0.7349743	1.0468801	0.21453872	-0.68592236	0.86699129	-0.29547793	-0.50201933	0.9488871	0.2398438
128	0.508	-0.30253999	0.063760852	-0.13545584	-0.78422168	0.038803009	0.014945609	-0.43539009	0.086849147	-0.16022099	-0.92565322	0.056207042	0.0363443	-0.4255588	0.10688384	-0.075736301	-0.89809736	0.081417926	-0.045235891	-0.49638892	0.051432741	-0.11513532	-0.97434411	0.033801405	-0.017059815	-0.42711058	0.47987043	-0.16551865	-0.78440583	0.43377413	0.09264543	-0.41774058	0.45231164	-0.046687212	-0.76209696	0.43731706	-0.034976896	-0.59315923	0.82245166	-0.21127483	-0.70281212	0.83926383	0.16082861	-0.56026541	0.92383745	-0.13270581	-0.60733989	0.92432241	0.10720028	-0.77475269	0.94104104	-0.0588852	-0.62534257	1.3979873	-0.17320993	-0.6686595	1.4002822	0.14472012	-0.72453031	1.4257357	-0.029679318	-0.76289634	1.0950385	-0.2636196	-0.72746561	1.0451329	0.21567676	-0.68431633	0.86632996	-0.29710522	-0.49333301	0.94921478	0.23917575
129	0.512	-0.28529144	0.062351616	-0.13235132	-0.78425131	0.038743885	0.015003045	-0.41824753	0.084667727	-0.15936006	-0.92640785	0.056033246	0.036098319	-0.40948687	0.10547964	-0.075034967	-0.89791083	0.081418575	-0.045406614	-0.47931653	0.049254332	-0.11498771	-0.97432712	0.03398493	-0.017341861	-0.42008435	0.47806165	-0.16567373	-0.78228762	0.43321743	0.092539604	-0.41151258	0.45057171	-0.046765743	-0.75979265	0.43652782	-0.035119762	-0.58617609	0.82122804	-0.21110809	-0.69844113	0.83810187	0.16045176	-0.55353508	0.92245919	-0.13219318	-0.6023777	0.92291834	0.10740766	-0.76884105	0.93964036	-0.05971817	-0.61972778	1.3963089	-0.17321782	-0.66297336	1.3987654	0.14480835	-0.71881057	1.4243661	-0.02978663	-0.75976065	1.0946941	-0.26428883	-0.71988882	1.0433845	0.21683112	-0.68264445	0.86566525	-0.29871818	-0.4847072	0.94947564	0.23850405
130	0.516	-0.2683066	0.060916428	-0.12917548	-0.7843033	0.038702631	0.015072601	-0.40128761	0.08267628	-0.15853046	-0.92741277	0.055775272	0.035816627	-0.39367863	0.10418047	-0.074420503	-0.89771787	0.081413809	-0.045615872	-0.46248734	0.047271303	-0.11483953	-0.9743041	0.034176092	-0.017633935	-0.41308252	0.47614498	-0.1658216	-0.78001522	0.43263797	0.092484786	-0.40529161	0.44865049	-0.046857325	-0.75741465	0.43565402	-0.035264824	-0.57926005	0.81989638	-0.21091271	-0.69408738	0.83693103	0.16007024	-0.54679511	0.92101426	-0.13169264	-0.59740761	0.92147639	0.10762325	-0.76418932	0.938708	-0.05945218	-0.61409807	1.3945822	-0.17320327	-0.6572825	1.3971953	0.14488062	-0.71279719	1.4228925	-0.030001533	-0.75652855	1.094296	-0.26474168	-0.71223465	1.041626	0.21798887	-0.68095708	0.86499861	-0.30033934	-0.47614094	0.94966833	0.2378288
131	0.52	-0.25159925	0.059499743	-0.12594069	-0.78436016	0.038679904	0.015150291	-0.38453292	0.080866094	-0.15773699	-0.92818587	0.055626278	0.035590726	-0.37822685	0.10297414	-0.073937687	-0.8975502	0.081415238	-0.045823732	-0.44594051	0.045466671	-0.11478316	-0.97425791	0.03438145	-0.017936348	-0.40610638	0.47412147	-0.16595374	-0.77762424	0.43202239	0.092456549	-0.39907785	0.44655816	-0.046961006	-0.75496687	0.43468745	-0.035415551	-0.57233873	0.81847509	-0.21069763	-0.68976366	0.83574908	0.15970883	-0.54003131	0.91950984	-0.13119616	-0.59242772	0.91999318	0.10784603	-0.75974007	0.93780099	-0.059124682	-0.60843465	1.3928125	-0.17317477	-0.65156075	1.3955718	0.14493162	-0.70674345	1.421306	-0.03019116	-0.75322357	1.0938501	-0.2650733	-0.70453053	1.0398616	0.21915308	-0.67933834	0.86432658	-0.30200702	-0.46762687	0.94979059	0.2371436
132	0.524	-0.23517383	0.058135639	-0.12265389	-0.78441745	0.038666522	0.015231753	-0.36801451	0.079230977	-0.15699112	-0.92839526	0.055723505	0.035482221	-0.36323027	0.10184122	-0.07364539	-0.89744653	0.08143091	-0.045980537	-0.42963989	0.04384198	-0.11483721	-0.97417178	0.034611803	-0.018264415	-0.3991731	0.47198774	-0.16606713	-0.77520451	0.43135907	0.092407438	-0.39286156	0.44430334	-0.047071777	-0.75244456	0.43363087	-0.03556557	-0.56536626	0.81697996	-0.21047827	-0.68545683	0.83454038	0.15936186	-0.53319729	0.91796547	-0.1306645	-0.58743606	0.91846588	0.10807384	-0.75401368	0.93630584	-0.059887845	-0.60274411	1.3910019	-0.17315913	-0.6458	1.3938969	0.14496962	-0.70088142	1.419648	-0.030267148	-0.74987277	1.0933718	-0.26539345	-0.69683338	1.0380867	0.22031652	-0.67781154	0.86364755	-0.30373901	-0.45916047	0.94984197	0.23643865
